<svg width="245" height="353" viewBox="0 0 245 353" fill="none" xmlns="http://www.w3.org/2000/svg">
<rect x="0.5" y="0.5" width="244" height="352" rx="23.5" fill="#3777FF" stroke="#423F45"/>
<path d="M42.72 192V164H47.84L61 183.72V164H66.12V192H61L47.84 172.32V192H42.72ZM78.8681 192.48C76.3881 192.48 74.4681 191.707 73.1081 190.16C71.7748 188.613 71.1081 186.347 71.1081 183.36V172.16H76.1881V182.88C76.1881 184.587 76.5348 185.893 77.2281 186.8C77.9215 187.707 79.0148 188.16 80.5081 188.16C81.9215 188.16 83.0815 187.653 83.9881 186.64C84.9215 185.627 85.3881 184.213 85.3881 182.4V172.16H90.5081V192H85.9881L85.5881 188.64C84.9748 189.813 84.0815 190.747 82.9081 191.44C81.7615 192.133 80.4148 192.48 78.8681 192.48ZM95.7641 192V163.2H100.884V192H95.7641ZM106.116 192V163.2H111.236V192H106.116ZM116.587 192V164H127.827C130.734 164 132.947 164.68 134.467 166.04C136.014 167.373 136.787 169.093 136.787 171.2C136.787 172.96 136.307 174.373 135.347 175.44C134.414 176.48 133.267 177.187 131.907 177.56C133.507 177.88 134.827 178.68 135.867 179.96C136.907 181.213 137.427 182.68 137.427 184.36C137.427 186.573 136.627 188.4 135.027 189.84C133.427 191.28 131.161 192 128.227 192H116.587ZM121.707 175.76H127.067C128.507 175.76 129.614 175.427 130.387 174.76C131.161 174.093 131.547 173.147 131.547 171.92C131.547 170.747 131.161 169.827 130.387 169.16C129.641 168.467 128.507 168.12 126.987 168.12H121.707V175.76ZM121.707 187.84H127.427C128.947 187.84 130.121 187.493 130.947 186.8C131.801 186.08 132.227 185.08 132.227 183.8C132.227 182.493 131.787 181.467 130.907 180.72C130.027 179.973 128.841 179.6 127.347 179.6H121.707V187.84ZM148.542 192.48C146.835 192.48 145.435 192.213 144.342 191.68C143.248 191.12 142.435 190.387 141.902 189.48C141.368 188.573 141.102 187.573 141.102 186.48C141.102 184.64 141.822 183.147 143.262 182C144.702 180.853 146.862 180.28 149.742 180.28H154.782V179.8C154.782 178.44 154.395 177.44 153.622 176.8C152.848 176.16 151.888 175.84 150.742 175.84C149.702 175.84 148.795 176.093 148.022 176.6C147.248 177.08 146.768 177.8 146.582 178.76H141.582C141.715 177.32 142.195 176.067 143.022 175C143.875 173.933 144.968 173.12 146.302 172.56C147.635 171.973 149.128 171.68 150.782 171.68C153.608 171.68 155.835 172.387 157.462 173.8C159.088 175.213 159.902 177.213 159.902 179.8V192H155.542L155.062 188.8C154.475 189.867 153.648 190.747 152.582 191.44C151.542 192.133 150.195 192.48 148.542 192.48ZM149.702 188.48C151.168 188.48 152.302 188 153.102 187.04C153.928 186.08 154.448 184.893 154.662 183.48H150.302C148.942 183.48 147.968 183.733 147.382 184.24C146.795 184.72 146.502 185.32 146.502 186.04C146.502 186.813 146.795 187.413 147.382 187.84C147.968 188.267 148.742 188.48 149.702 188.48ZM164.788 192V172.16H169.308L169.708 175.52C170.321 174.347 171.201 173.413 172.348 172.72C173.521 172.027 174.894 171.68 176.468 171.68C178.921 171.68 180.828 172.453 182.188 174C183.547 175.547 184.227 177.813 184.227 180.8V192H179.108V181.28C179.108 179.573 178.761 178.267 178.068 177.36C177.374 176.453 176.294 176 174.828 176C173.388 176 172.201 176.507 171.268 177.52C170.361 178.533 169.908 179.947 169.908 181.76V192H164.788ZM189.123 192V163.2H194.243V180.2L201.283 172.16H207.363L199.243 181.2L208.683 192H202.283L194.243 182.04V192H189.123Z" fill="white"/>
</svg>
