<svg width="40" height="40" viewBox="0 0 40 40" fill="none" xmlns="http://www.w3.org/2000/svg">
<path fill-rule="evenodd" clip-rule="evenodd" d="M10.0007 20C14.1673 20 16.6673 17.6667 16.6673 14.1667C16.6673 10.6667 14.1673 8.33337 10.0007 8.33337C5.83398 8.33337 3.33398 8.33337 3.33398 8.33337V20H10.0007Z" stroke="#F4F4F5" stroke-width="1.66667" stroke-linecap="round" stroke-linejoin="round"/>
<path fill-rule="evenodd" clip-rule="evenodd" d="M10.86 33.3333C15.448 33.3333 18.334 30.8333 18.334 26.6667C18.334 22.5 15.448 20 10.86 20H3.33398V33.3333H10.86Z" stroke="#F4F4F5" stroke-width="1.66667" stroke-linecap="round" stroke-linejoin="round"/>
<path d="M24.1673 25.8334H36.6673C36.6673 22.5 35.0007 18.3334 30.0007 18.3334C25.834 18.3334 23.334 21.6667 23.334 25.8334C23.334 30 25.834 33.3334 30.0007 33.3334C34.1673 33.3334 35.834 30.8334 35.834 30.8334" stroke="#F4F4F5" stroke-width="1.66667" stroke-linecap="round" stroke-linejoin="round"/>
<path d="M35 12.5H25" stroke="#F4F4F5" stroke-width="1.66667" stroke-linecap="round" stroke-linejoin="round"/>
</svg>
