<svg width="40" height="40" viewBox="0 0 40 40" fill="none" xmlns="http://www.w3.org/2000/svg">
<path d="M36.6673 20C36.6673 24.6155 34.7911 28.7928 31.76 31.8109C28.7459 34.8119 24.5899 36.6667 20.0007 36.6667C10.7959 36.6667 3.33398 29.2048 3.33398 20C3.33398 15.5513 5.07698 11.5097 7.91732 8.52087C10.9539 5.3255 15.2447 3.33337 20.0007 3.33337C24.5899 3.33337 28.7459 5.18823 31.76 8.18917C34.7911 11.2073 36.6673 15.3845 36.6673 20Z" stroke="#F4F4F5" stroke-width="1.71875" stroke-linecap="round" stroke-linejoin="round"/>
<path d="M36.6677 20C34.2357 20 27.5271 19.0827 21.5231 21.7193C15.0011 24.5835 10.2781 29.0263 8.22021 31.7893" stroke="#F4F4F5" stroke-width="1.71875" stroke-linecap="round" stroke-linejoin="round"/>
<path d="M13.75 4.54492C16.3587 6.95233 22.0502 13.0822 24.1667 19.1668C26.2831 25.2513 27.0674 32.7327 27.5505 34.8623" stroke="#F4F4F5" stroke-width="1.71875" stroke-linecap="round" stroke-linejoin="round"/>
<path d="M3.46289 17.9167C6.61103 18.1064 14.9451 18.2777 20.2784 15.9999C25.6117 13.7222 30.2011 9.533 31.7752 8.20435" stroke="#F4F4F5" stroke-width="1.71875" stroke-linecap="round" stroke-linejoin="round"/>
<path d="M4.58398 26.3442C6.05203 29.9078 8.71965 32.8507 12.084 34.6701" stroke="#F4F4F5" stroke-width="1.71875" stroke-linecap="round" stroke-linejoin="round"/>
<path d="M3.33398 20C3.33398 15.5514 5.07698 11.5097 7.91732 8.52087" stroke="#F4F4F5" stroke-width="1.71875" stroke-linecap="round" stroke-linejoin="round"/>
<path d="M19.9993 3.33337C15.2433 3.33337 10.9526 5.3255 7.91602 8.52087" stroke="#F4F4F5" stroke-width="1.71875" stroke-linecap="round" stroke-linejoin="round"/>
<path d="M26.666 4.72009C28.5771 5.55509 30.3013 6.73813 31.7587 8.18908C34.7898 11.2071 36.666 15.3845 36.666 20C36.666 22.0521 36.2951 24.0177 35.6167 25.8333" stroke="#F4F4F5" stroke-width="1.71875" stroke-linecap="round" stroke-linejoin="round"/>
<path d="M20 36.6667C24.5892 36.6667 28.7452 34.8118 31.7593 31.8109" stroke="#F4F4F5" stroke-width="1.71875" stroke-linecap="round" stroke-linejoin="round"/>
</svg>
