<svg width="40" height="40" viewBox="0 0 40 40" fill="none" xmlns="http://www.w3.org/2000/svg">
<g clip-path="url(#clip0_212_1122)">
<path d="M24.4535 25.3972C26.4566 24.9809 28.2742 24.2591 29.6871 23.1994C32.1 21.3897 33.3332 18.5947 33.3332 15.8333C33.3332 13.8961 32.5988 12.0876 31.3273 10.5557C30.6188 9.70215 32.6911 3.33332 30.8498 4.19107C29.0086 5.04882 26.3088 6.9474 24.8937 6.5284C23.3786 6.07979 21.7276 5.83332 19.9998 5.83332C18.4992 5.83332 17.0564 6.01925 15.7103 6.36208C13.7537 6.86039 11.8824 4.99999 9.99984 4.19107C8.11722 3.38215 9.1445 9.9694 8.58534 10.6621C7.3675 12.171 6.6665 13.9407 6.6665 15.8333C6.6665 18.5947 8.15889 21.3897 10.5718 23.1994C12.1791 24.4048 14.1948 25.1731 16.4499 25.5517" stroke="#F4F4F5" stroke-width="1.66667" stroke-linecap="round"/>
<path d="M16.4501 25.5516C15.4847 26.6143 15.002 27.6233 15.002 28.5788C15.002 29.5342 15.002 31.9554 15.002 35.8423" stroke="#F4F4F5" stroke-width="1.66667" stroke-linecap="round"/>
<path d="M24.4536 25.3972C25.3684 26.5979 25.8259 27.676 25.8259 28.6314C25.8259 29.5869 25.8259 31.9905 25.8259 35.8423" stroke="#F4F4F5" stroke-width="1.66667" stroke-linecap="round"/>
<path d="M5 26.0129C5.74906 26.1045 6.30462 26.4489 6.66667 27.0462C7.20974 27.9419 9.2285 31.265 11.5209 31.265C13.0492 31.265 14.2096 31.265 15.002 31.265" stroke="#F4F4F5" stroke-width="1.66667" stroke-linecap="round"/>
</g>
<defs>
<clipPath id="clip0_212_1122">
<rect width="40" height="40" fill="white"/>
</clipPath>
</defs>
</svg>
