<svg width="40" height="40" viewBox="0 0 40 40" fill="none" xmlns="http://www.w3.org/2000/svg">
<path d="M28.3333 5H11.6667C7.98477 5 5 7.98477 5 11.6667V28.3333C5 32.0152 7.98477 35 11.6667 35H28.3333C32.0152 35 35 32.0152 35 28.3333V11.6667C35 7.98477 32.0152 5 28.3333 5Z" stroke="#F4F4F5" stroke-width="1.66667" stroke-linejoin="round"/>
<path d="M20.0002 26.6667C23.6821 26.6667 26.6668 23.682 26.6668 20C26.6668 16.3181 23.6821 13.3334 20.0002 13.3334C16.3182 13.3334 13.3335 16.3181 13.3335 20C13.3335 23.682 16.3182 26.6667 20.0002 26.6667Z" stroke="#F4F4F5" stroke-width="1.66667" stroke-linejoin="round"/>
<path d="M29.1667 12.5C30.0872 12.5 30.8333 11.7538 30.8333 10.8333C30.8333 9.91279 30.0872 9.16663 29.1667 9.16663C28.2462 9.16663 27.5 9.91279 27.5 10.8333C27.5 11.7538 28.2462 12.5 29.1667 12.5Z" fill="#F4F4F5"/>
</svg>
