<svg width="40" height="40" viewBox="0 0 40 40" fill="none" xmlns="http://www.w3.org/2000/svg">
<path d="M7.49984 10.0002C9.34079 10.0002 10.8332 8.50778 10.8332 6.66683C10.8332 4.82588 9.34079 3.3335 7.49984 3.3335C5.65889 3.3335 4.1665 4.82588 4.1665 6.66683C4.1665 8.50778 5.65889 10.0002 7.49984 10.0002Z" stroke="#F4F4F5" stroke-width="1.69444"/>
<path d="M10.8332 15.0001H4.1665V35.8335H10.8332V15.0001Z" stroke="#F4F4F5" stroke-width="1.69444" stroke-linejoin="round"/>
<path d="M17.5 22.9167V35.8333H23.3333V24.1667C23.3333 22.0833 24.5833 20.4167 26.6667 20.4167C28.75 20.4167 30 22.5 30 24.1667V35.8333H35.8333V22.9167C35.8333 20.4167 32.9167 15 26.6667 15C20.4167 15 17.5 20.4167 17.5 22.9167Z" stroke="#F4F4F5" stroke-width="1.69444" stroke-linejoin="round"/>
</svg>
