<svg width="40" height="40" viewBox="0 0 40 40" fill="none" xmlns="http://www.w3.org/2000/svg">
<g clip-path="url(#clip0_212_1116)">
<path d="M4.16699 29.8019C5.77438 30.6905 17.4098 37.3978 25.6836 32.2284C33.9572 27.059 33.5008 18.1528 33.5008 14.0717C34.2503 12.5015 35.8337 11.7033 35.8337 7.45321C34.2784 8.88987 32.7326 9.37871 31.1962 8.91971C29.6909 6.62468 27.6199 5.6096 24.9832 5.87449C21.0281 6.27182 19.5811 10.1521 20.0069 15.1723C13.9086 18.2562 9.12658 12.9367 6.66214 8.91971C5.83872 12.0833 5.04474 15.8814 6.66214 20.083C7.74041 22.884 10.3324 25.252 14.4382 27.1872C10.2772 29.4424 6.85351 30.3139 4.16699 29.8019Z" stroke="#F4F4F5" stroke-width="1.69444" stroke-linejoin="round"/>
</g>
<defs>
<clipPath id="clip0_212_1116">
<rect width="40" height="40" fill="white"/>
</clipPath>
</defs>
</svg>
